<svg xmlns="http://www.w3.org/2000/svg" width="30" height="30" viewBox="0 0 30 30">
    <g fill="none" fill-rule="evenodd">
        <path fill="#FFFFFE" d="M29.825 14.914c0 8.236-6.676 14.912-14.912 14.912C6.676 29.826 0 23.15 0 14.914 0 6.676 6.676 0 14.913 0c8.236 0 14.912 6.676 14.912 14.914"/>
        <path fill="#DA322A" d="M14.913.783C7.108.783.782 7.108.782 14.914c0 7.803 6.326 14.13 14.13 14.13 7.805 0 14.132-6.327 14.132-14.13 0-7.806-6.327-14.131-14.131-14.131"/>
        <path fill="#FFFFFE" d="M14.913 6.746c4.505 0 8.166 3.662 8.166 8.168 0 4.504-3.66 8.166-8.166 8.166s-8.167-3.662-8.167-8.166c0-4.506 3.661-8.168 8.167-8.168M6.799 7.517c.022.136-.03.28-.154.432-.126.154-.257.23-.393.23L4.818 6.997c-.022-.12.033-.26.166-.422.131-.158.258-.238.381-.24L6.8 7.517zM8.966 7.526c.002.138-.07.274-.215.406-.149.133-.288.19-.424.171l-2.26-2.505c-.005-.123.071-.254.227-.394.15-.138.29-.2.412-.182l2.26 2.504zM10.099 6.723c-.02.138-.11.261-.273.37-.166.11-.314.145-.444.106L7.517 4.388c.012-.12.106-.24.28-.355.173-.114.317-.154.435-.12l1.867 2.81zM12.544 5.608c-.029.128-.14.232-.333.311-.2.083-.355.09-.46.017l-.712-1.723a1.086 1.086 0 0 0-.519-.571.913.913 0 0 0-.794-.024c-.287.12-.51.3-.667.544-.112-.022-.195-.097-.249-.228a.414.414 0 0 1 .007-.357c.173-.223.477-.425.91-.603.453-.189.867-.203 1.245-.047.375.155.662.474.862.954l.71 1.727zM15.135 6.355c-.088.107-.231.163-.427.166-.201.003-.344-.048-.432-.151l-.082-4.338c.076-.094.22-.144.428-.148.206-.004.348.04.43.133l.083 4.338zM19.151 5.047c-.138.454-.37.751-.696.895-.27.12-.585.126-.937.018-.258-.077-.432-.175-.523-.29a.44.44 0 0 1-.002-.286c.038-.127.102-.207.19-.238.098.115.2.19.304.222a.574.574 0 0 0 .482-.057c.165-.095.28-.251.347-.472l.373-1.223a.534.534 0 0 0-.017-.39.355.355 0 0 0-.227-.198c-.198-.061-.403.044-.605.313l-1.557 2.066c-.117.075-.285.078-.502.012-.227-.069-.357-.163-.382-.281l1.394-1.745a.359.359 0 0 1-.201-.106.34.34 0 0 1-.111-.198l-.176-1.202c.077-.076.224-.082.44-.016.21.065.34.154.392.27l.164.977.13-.17c.364-.466.812-.618 1.346-.455.293.09.51.239.652.449.164.25.193.558.082.92l-.36 1.185zM19.841 6.792c-.131.046-.282.021-.453-.075-.174-.097-.272-.213-.297-.347l1.654-2.94c.114-.043.264-.014.446.09.179.1.28.21.304.332l-1.654 2.94zM22.525 7.902a.542.542 0 0 1-.404-.169c-.136-.13-.205-.264-.204-.404l1.723-1.826c.136-.002.272.061.41.189.133.125.198.254.198.386l-1.723 1.824zm1.807.42c-.423.451-.891.682-1.401.694-.512.012-.995-.198-1.451-.628-.456-.428-.691-.899-.706-1.412-.019-.512.185-.991.606-1.439l1.08-1.145c.133-.008.274.059.423.2.163.153.232.285.208.394L21.957 6.19c-.282.298-.43.607-.445.925-.016.32.108.6.37.847.26.246.548.357.864.328.314-.03.619-.198.913-.51l1.126-1.196c.148.008.294.08.438.215.14.133.204.257.191.378l-1.082 1.145zM3.854 21.34c-.116-.036-.205-.124-.269-.262-.063-.138-.073-.262-.025-.374l1.478-.685c.265-.123.44-.293.525-.508.085-.216.07-.446-.044-.693a1.444 1.444 0 0 0-.613-.66c.022-.09.088-.159.197-.21a.392.392 0 0 1 .295-.019c.247.159.462.438.648.838.178.385.219.737.122 1.057-.107.346-.365.614-.775.804l-1.539.713zm-.741-1.6a.488.488 0 0 1-.273-.27c-.062-.136-.07-.258-.022-.366l1.556-.72c.125.023.22.102.281.235a.475.475 0 0 1 .013.4l-1.555.721zM6.076 24.14c-.12-.004-.23-.064-.331-.18a.449.449 0 0 1-.128-.35l1.23-1.068c.222-.192.343-.403.364-.634.022-.23-.056-.448-.234-.654a1.44 1.44 0 0 0-.772-.464c-.003-.092.042-.177.132-.256a.395.395 0 0 1 .279-.1c.28.084.565.292.854.625.278.32.414.648.41.982-.008.362-.181.692-.522.987l-1.282 1.111zM4.92 22.806a.489.489 0 0 1-.337-.185c-.097-.112-.137-.228-.122-.345l1.295-1.123c.128-.013.24.037.337.149.097.113.14.24.122.38L4.92 22.808zM7.334 25.12c-.115.027-.236-.01-.362-.108-.128-.1-.192-.207-.192-.322l1.799-2.31c.1-.026.217.015.353.12.132.103.2.206.2.31l-1.798 2.31zM10.52 26.445c.03.073.02.16-.033.263-.051.104-.119.167-.202.19l-2.307-1.161c-.028-.079-.015-.17.037-.274.054-.106.117-.166.193-.183l1.585.798c-.047-.14-.009-.335.117-.585l.277-.55a.944.944 0 0 0 .087-.681.802.802 0 0 0-.44-.524 1.301 1.301 0 0 0-.746-.122.4.4 0 0 1 .041-.282.416.416 0 0 1 .201-.197c.255-.022.56.056.913.234.362.183.597.44.705.772.112.344.067.716-.133 1.114l-.38.757c-.104.206-.114.33-.027.374l.111.056zM12.848 27.46c-.085.075-.205.093-.36.057-.16-.037-.266-.108-.318-.213l.268-1.155-.026-.007c-.15-.034-.289.009-.419.128-.13.12-.22.296-.274.526l-.09.381c-.087.072-.199.091-.335.06-.143-.033-.233-.1-.273-.2l.089-.383c.082-.353.242-.608.48-.766.24-.159.523-.2.853-.123l.08.019.079-.34c.044-.188.037-.35-.023-.483a.472.472 0 0 0-.346-.27.544.544 0 0 0-.479.106.392.392 0 0 1-.042-.3.346.346 0 0 1 .147-.225c.18-.075.4-.083.659-.022.68.158.93.632.745 1.423l-.415 1.788zM18.387 27.179c-.049.1-.156.163-.323.192-.172.028-.295.003-.37-.078l-.32-1.937a.608.608 0 0 0-.173-.359.365.365 0 0 0-.324-.091l-.519.085c-.074.013-.088.156-.042.431l.194 1.17c.112.678-.114 1.064-.678 1.157a.576.576 0 0 1-.357-.038.302.302 0 0 1-.152-.231.335.335 0 0 1 .067-.279.236.236 0 0 0 .215.074c.2-.034.273-.217.218-.55l-.163-.99c-.053-.316-.018-.53.103-.645l-.598.099c-.077-.042-.126-.124-.147-.247-.018-.116.002-.206.061-.269l1.78-.295c.69-.114 1.094.183 1.212.892l.316 1.909zM19.92 26.545c-.035.112-.127.199-.276.259-.15.06-.276.061-.375.003l-1.095-2.716c.028-.098.122-.18.28-.244.156-.063.28-.069.37-.018l1.095 2.716zM22.697 23.659c.235.336.32.65.256.941-.055.244-.205.452-.453.625-.179.125-.33.186-.452.182a.401.401 0 0 1-.194-.152c-.066-.095-.088-.18-.065-.255a.519.519 0 0 0 .299-.079.456.456 0 0 0 .2-.346.7.7 0 0 0-.144-.484l-.636-.908a.48.48 0 0 0-.269-.203.286.286 0 0 0-.245.04c-.14.099-.17.288-.09.567l.614 2.144c-.007.117-.087.228-.24.335-.159.111-.285.144-.377.098l-.48-1.863a.275.275 0 0 1-.172.074.279.279 0 0 1-.186-.036l-.892-.538c-.013-.092.054-.191.205-.297.148-.103.273-.14.377-.11l.733.425-.048-.179c-.132-.49-.012-.867.36-1.128.206-.144.415-.204.624-.18.25.028.47.176.658.446l.617.88zM24.415 20.962c.394.315.606.691.637 1.13.027.392-.086.746-.338 1.061-.204.255-.416.426-.638.511-.095.023-.19-.005-.288-.082-.1-.081-.146-.166-.134-.254a.853.853 0 0 0 .523-.302.987.987 0 0 0 .226-.735c-.03-.29-.177-.54-.444-.753-.267-.214-.546-.303-.834-.267a.985.985 0 0 0-.667.383.837.837 0 0 0-.19.568c-.09.02-.181-.005-.271-.078-.098-.077-.148-.163-.15-.259.034-.226.155-.47.362-.73a1.48 1.48 0 0 1 .964-.565c.435-.066.849.058 1.242.372M26.576 18.784c.072-.034.16-.026.264.021.107.049.173.114.199.196l-1.071 2.35c-.078.03-.17.022-.276-.026-.107-.049-.17-.111-.19-.186l.736-1.615c-.139.053-.335.021-.589-.094l-.56-.256a.946.946 0 0 0-.685-.06.801.801 0 0 0-.506.46 1.301 1.301 0 0 0-.093.75.393.393 0 0 1-.283-.03.412.412 0 0 1-.205-.194c-.032-.254.035-.56.199-.92.168-.37.417-.614.744-.735.34-.125.712-.095 1.118.09l.771.351c.21.096.335.1.375.012l.052-.114z"/>
        <path fill="#FFFFFE" d="M27.645 10.533c-.154-.549-.813-.543-1.175-.421l-6.94 1.88-.345-.672c-.26-.486-.4-.89-.892-.89H11.7c-.491 0-.677.427-.89.89l-1.344 2.651a.6.6 0 0 0-.06.292.873.873 0 0 0-.103.406v.698c-.17.14-.292.373-.47.727l-.523 1.073c-.182.436.453.889 1.01.889h11.263c.558 0 1.178-.387 1.01-.889l-.523-1.073c-.11-.137-.192-.263-.266-.375v-1.05a.87.87 0 0 0-.233-.59c-.008-.036-.01-.07-.026-.108l-.027-.051c.238-.278.266-.534.306-.721l6.033-1.684c.604-.217.912-.544.79-.982"/>
        <path fill="#DA322A" d="M26.775 11.232l-6.201 1.731-.054.249c-.067.337-.179.9-2.084 1.384-.734.187-1.697.294-2.64.294-1.381 0-2.254-.217-2.524-.436-.074-.109-.056-.161-.05-.181.05-.144.354-.36.923-.516l12.419-3.366c.098-.033.216-.052.326-.052.262 0 .42.092.472.273.025.092.104.371-.587.62zm-5.514 6.225c-.117.163-.41.286-.68.286H9.32c-.294 0-.589-.169-.693-.325-.05-.076-.035-.114-.035-.114l.517-1.064c.192.4.597.678 1.068.678h9.751c.394 0 .74-.195.957-.49l.411.839c.016.048.025.108-.034.19zM9.614 14.669a.565.565 0 0 1 .562-.564h1.439c-.018.13-.027.266-.022.412.007.17.145.302.312.302l.012-.001a.312.312 0 0 0 .302-.324c-.045-1.221 1.066-1.507 1.116-1.52a.313.313 0 0 0-.143-.609c-.406.094-1.06.434-1.392 1.115h-1.624c-.04 0-.078.008-.117.012l1.047-2.067c.222-.485.337-.682.593-.682h6.595c.217 0 .298.111.523.55l.265.515-5.093 1.38c-.513.142-1.16.412-1.324.895-.059.171-.08.44.153.748l.036.04c.597.549 2.256.608 2.942.608.99 0 2.005-.113 2.785-.312.903-.229 1.471-.49 1.837-.761a.526.526 0 0 1 .072.263v1.059c0 .31-.252.564-.563.564h-9.75a.564.564 0 0 1-.563-.564v-1.059zm18.315-4.216c-.124-.44-.512-.703-1.039-.703-.174 0-.356.03-.498.077L19.7 11.641l-.326-.635c-.214-.417-.457-.89-1.08-.89h-6.595c-.684 0-.949.582-1.168 1.062l-1.35 2.66c-.055.118-.192.66-.192.831v.575c-.163.183-.292.42-.439.712l-.53 1.09a.747.747 0 0 0 .085.719c.237.355.736.604 1.214.604h11.263c.476 0 .952-.22 1.188-.547a.83.83 0 0 0 .104-.792l-.524-1.074s-.178-.247-.234-.333v-.954c0-.344-.076-.566-.257-.717.113-.175.176-.35.216-.519l5.88-1.641c1.066-.382 1.068-1.003.974-1.339z"/>
    </g>
</svg>
