<svg xmlns="http://www.w3.org/2000/svg" width="45" height="45" viewBox="0 0 45 45">
    <defs>
        <circle id="a" cx="22.5" cy="22.5" r="22.5"/>
    </defs>
    <g fill="none" fill-rule="evenodd">
        <circle cx="22.5" cy="22.5" r="21.445" stroke="#FFF" stroke-width="2.109" fill="#da322a"/>
        <path fill="#FFF" fill-rule="nonzero" d="M29.91 19.848c.81 0 1.495-.288 2.052-.865.558-.577.836-1.287.836-2.13 0-.86-.27-1.568-.81-2.126-.539-.557-1.26-.836-2.16-.836-.821 0-1.492.277-2.013.83-.52.553-.78 1.253-.78 2.1 0 .892.265 1.62.797 2.183.531.563 1.224.844 2.078.844zm-.016-1.384c-.467 0-.821-.14-1.063-.422s-.363-.678-.363-1.189c0-1.046.476-1.57 1.426-1.57.472 0 .832.149 1.08.445.225.278.337.655.337 1.133 0 .5-.122.892-.366 1.176-.245.285-.595.427-1.051.427zm-4.607-1.096c.264 0 .45-.055.557-.165.107-.11.16-.3.16-.568v-1.933c0-.277-.053-.48-.16-.61-.108-.128-.296-.193-.565-.193-.269 0-.457.062-.564.185-.107.124-.161.33-.161.618v1.924c0 .275.054.467.16.577.108.11.299.165.573.165zm-6.835 2.394c.522 0 .783-.264.783-.791v-2.06c0-.563.101-.975.305-1.236.203-.261.54-.392 1.013-.392.904 0 1.356.478 1.356 1.434v.61c0 .656-.329.984-.985.984h-.289c-.425 0-.638.237-.638.71 0 .444.23.666.692.666h.38c.719 0 1.281-.205 1.686-.615.405-.411.608-1.005.608-1.782v-.734c0-.865-.232-1.523-.696-1.973-.465-.45-1.147-.676-2.048-.676-.912 0-1.607.234-2.085.7-.5.484-.75 1.206-.75 2.168v2.245c0 .494.223.742.668.742zm-2.679 0c.264 0 .45-.055.557-.163.107-.109.16-.299.16-.57v-4.327c0-.277-.053-.48-.16-.61-.107-.128-.296-.193-.565-.193-.269 0-.457.062-.564.185-.107.124-.16.33-.16.618v4.318c0 .277.053.47.16.579.107.108.298.163.572.163zm-2.769 1.52c.264 0 .45-.055.557-.165.107-.11.16-.3.16-.568v-5.847c0-.277-.053-.48-.16-.61-.108-.128-.296-.193-.565-.193-.269 0-.457.062-.564.185-.107.124-.161.33-.161.618v5.838c0 .275.054.467.16.577.108.11.299.165.573.165zm21.63 9.73c.505 0 .758-.253.758-.758v-2.74c0-.83-.222-1.427-.667-1.792-.415-.338-1.076-.507-1.982-.507-.895 0-1.57.19-2.027.569-.42.348-.63.84-.63 1.474 0 .152.016.368.05.651l.168 1.34c.017.131.005.22-.035.267-.04.047-.124.07-.253.07h-.21a.468.468 0 0 0-.392.196c-.099.13-.148.301-.148.513 0 .461.209.692.626.692h.47c.961 0 1.442-.424 1.442-1.273 0-.102-.008-.212-.025-.33l-.177-1.314a5.15 5.15 0 0 1-.05-.54c0-.315.073-.54.219-.675.176-.17.486-.256.93-.256.46 0 .782.078.97.233.186.155.28.442.28.859v2.563c0 .505.227.758.683.758zm-7.445 0c.27 0 .46-.053.573-.159.112-.106.169-.295.169-.566v-2.74c0-.401-.121-.65-.363-.746-.041-.016-.062-.036-.062-.058 0-.038.029-.057.087-.057h.461c.267 0 .453-.046.56-.136.13-.102.194-.287.194-.556 0-.473-.251-.709-.754-.709h-1.78c-.296 0-.498.052-.605.157-.107.104-.16.29-.16.56 0 .456.254.684.765.684h.524c.074 0 .11.016.11.05 0 .021-.024.043-.073.065-.16.063-.264.148-.313.256-.042.085-.062.233-.062.445v2.785c0 .271.053.46.16.566.108.106.297.159.569.159zm-3.292 0c.263 0 .449-.055.556-.163.107-.109.16-.299.16-.57v-4.327c0-.277-.053-.48-.16-.61-.107-.128-.295-.193-.565-.193-.269 0-.457.062-.564.185-.107.124-.16.33-.16.618v4.318c0 .277.053.47.16.579.107.108.298.163.573.163zm-3.153-.075c.407 0 .697-.104.87-.313.153-.184.23-.47.23-.86V27.3c0-.709-.203-1.24-.61-1.595-.326-.28-.734-.42-1.223-.42h-.338c-.285 0-.485.06-.597.177-.113.118-.17.304-.17.556 0 .45.223.676.668.676h.136c.168 0 .316.056.445.169.151.14.227.34.227.597v1.908c0 .118-.056.177-.17.177h-.749c-.27 0-.457.059-.564.177-.107.118-.161.304-.161.556 0 .231.052.399.157.503.104.104.288.157.552.157h1.297zm-3.75.075c.506 0 .759-.253.759-.758v-2.74c0-.83-.223-1.427-.668-1.792-.414-.338-1.075-.507-1.981-.507-.896 0-1.571.19-2.027.569-.42.348-.63.84-.63 1.474 0 .152.016.368.049.651l.169 1.34c.016.131.005.22-.035.267-.04.047-.125.07-.254.07h-.21a.468.468 0 0 0-.391.196c-.099.13-.148.301-.148.513 0 .461.208.692.626.692h.47c.96 0 1.441-.424 1.441-1.273 0-.102-.008-.212-.024-.33l-.177-1.314a5.15 5.15 0 0 1-.05-.54c0-.315.073-.54.218-.675.176-.17.487-.256.932-.256.458 0 .78.078.968.233.186.155.28.442.28.859v2.563c0 .505.228.758.684.758zm-6.884-2.394c.264 0 .449-.055.556-.165.107-.11.16-.3.16-.568v-1.933c0-.277-.053-.48-.16-.61-.107-.128-.295-.193-.564-.193-.27 0-.458.062-.565.185-.107.124-.16.33-.16.618v1.924c0 .275.053.467.16.577.107.11.298.165.573.165z"/>
    </g>
</svg>
