<svg xmlns="http://www.w3.org/2000/svg" width="30" height="30" viewBox="0 0 30 30">
    <g fill="none" fill-rule="evenodd">
        <path fill="#FFFFFE" d="M29.826 14.914c0 8.236-6.676 14.912-14.913 14.912S0 23.15 0 14.914C0 6.676 6.676 0 14.913 0s14.913 6.676 14.913 14.914"/>
        <path fill="#DA322A" d="M14.913.783C7.109.783.783 7.108.783 14.914c0 7.804 6.326 14.13 14.13 14.13 7.805 0 14.13-6.326 14.13-14.13 0-7.806-6.325-14.13-14.13-14.13"/>
        <path fill="#FFFFFE" d="M14.913 6.745c4.505 0 8.168 3.664 8.168 8.17 0 4.503-3.663 8.165-8.168 8.165-4.504 0-8.167-3.662-8.167-8.166 0-4.505 3.663-8.169 8.167-8.169M11.56 6.902c-.033.134-.136.247-.31.338-.176.092-.328.11-.453.057L8.793 3.461c.025-.12.132-.227.318-.324.183-.095.33-.119.445-.074l2.003 3.839zM13.788 5.296c-.052.12-.178.204-.382.25-.213.05-.364.029-.458-.06l-.407-1.899a1.083 1.083 0 0 0-.417-.65.917.917 0 0 0-.78-.155c-.3.07-.647.29-.844.505-.105-.041-.175-.128-.206-.266a.404.404 0 0 1 .068-.351c.209-.193.635-.42 1.093-.524.478-.109.89-.054 1.233.162.345.218.576.58.69 1.086l.41 1.902zM17.729 5.71c-.091.093-.24.126-.447.1-.211-.028-.348-.1-.406-.212l.488-2.236c.021-.18-.004-.333-.083-.454a.45.45 0 0 0-.346-.212l-.774-.098c-.09-.013-.154.141-.195.46l-.134 1.353c-.102.786-.502 1.135-1.195 1.044a.738.738 0 0 1-.407-.165.345.345 0 0 1-.1-.306.382.382 0 0 1 .176-.284c.05.089.128.14.226.154.248.033.397-.145.448-.53l.104-1.148c.05-.365.163-.59.347-.673l-.739-.097c-.075-.072-.103-.18-.086-.322.017-.133.073-.226.164-.275l2.326.3c.851.11 1.222.576 1.114 1.397L17.73 5.71zM20.1 6.47c-.094.218-.23.288-.414.209l-1.48-.632c-.057-.076-.056-.183.003-.323.06-.142.138-.215.23-.22l.895.383c.045.02.084-.003.115-.07l.662-1.551a.644.644 0 0 0 .035-.484.535.535 0 0 0-.31-.318c-.143-.062-.27-.068-.377-.02-.06-.1-.061-.217-.005-.348.058-.137.14-.208.243-.212.142-.022.325.015.55.112.755.322.962.88.622 1.674l-.77 1.8z"/>
        <path fill="#FFFFFE" d="M17.918 12.145c0-.35-.232-.648-.558-.772.163-.132.26-.283.26-.46 0-1.334-1.212-2.415-2.707-2.415-1.495 0-2.707 1.08-2.707 2.415 0 .177.098.328.262.46-.328.124-.56.422-.56.772l-1.06 7.331c0 .463.905.837.905.837s1.262.43 3.174.43 3.148-.43 3.148-.43.903-.374.903-.837l-1.06-7.331z"/>
        <path fill="#DA322A" d="M12.613 19.327h-.028a.313.313 0 0 1-.284-.34l.531-5.949a.302.302 0 0 1 .338-.28c.17.013.298.167.28.337l-.526 5.948a.315.315 0 0 1-.311.284zm4.6 0a.314.314 0 0 1-.31-.284l-.527-5.948a.308.308 0 0 1 .28-.338.302.302 0 0 1 .338.281l.531 5.95a.313.313 0 0 1-.284.338h-.028zm-2.296.246a.31.31 0 0 1-.313-.31v-6.102a.31.31 0 1 1 .622 0v6.102a.31.31 0 0 1-.31.31zm-.822-9.823c0 .142-.167.257-.373.257s-.373-.115-.373-.257c0-.144.167-.258.373-.258s.373.114.373.258zm2.382 0c0 .142-.166.257-.372.257-.204 0-.372-.115-.372-.257 0-.144.168-.258.372-.258.206 0 .372.114.372.258zm-1.19.481c0 .146-.167.259-.374.259-.206 0-.373-.113-.373-.259 0-.14.167-.255.373-.255.207 0 .374.115.374.255zm.022-.883c0 .144-.166.258-.372.258s-.373-.114-.373-.258c0-.142.167-.257.373-.257s.372.115.372.257zm2.665 10.67c-.013.006-1.21.413-3.048.413-1.825 0-3.052-.405-3.055-.405-.345-.145-.686-.402-.71-.536l1.056-7.3.003-.045c0-.166.09-.316.231-.413.595.352 1.574.494 2.462.494.889 0 1.867-.142 2.463-.494a.503.503 0 0 1 .23.413l1.06 7.345c-.023.134-.364.391-.692.529zm-5.455-9.105c0-1.16 1.074-2.102 2.394-2.102s2.394.943 2.394 2.102c0 .223-.293.316-.293.316-.39.207-1.147.373-2.101.373-.953 0-1.71-.166-2.101-.373 0 0-.293-.111-.293-.316zm5.71 1.21a1.11 1.11 0 0 0-.401-.824.78.78 0 0 0 .102-.386c0-1.503-1.353-2.726-3.017-2.726-1.663 0-3.016 1.223-3.016 2.726 0 .142.037.269.102.386a1.11 1.11 0 0 0-.4.823L10.54 19.43l-.003.046c0 .639.912 1.05 1.114 1.134.053.017 1.335.444 3.275.444 1.942 0 3.2-.428 3.27-.453.184-.075 1.094-.486 1.094-1.125l-1.062-7.354z"/>
        <path fill="#FFFFFE" d="M3.855 21.34c-.116-.036-.206-.124-.27-.262-.063-.138-.073-.262-.025-.374l1.478-.685c.265-.123.44-.293.525-.508.084-.216.07-.446-.044-.693a1.446 1.446 0 0 0-.613-.66c.022-.09.089-.159.197-.21a.392.392 0 0 1 .295-.019c.247.159.462.438.648.838.178.385.219.737.121 1.057-.106.346-.364.614-.773.804l-1.54.713zm-.742-1.6a.486.486 0 0 1-.273-.27c-.062-.136-.07-.258-.022-.366l1.555-.72c.126.023.22.102.282.235a.478.478 0 0 1 .013.4l-1.555.721zM6.076 24.14c-.12-.004-.23-.064-.331-.18a.449.449 0 0 1-.128-.35l1.231-1.068c.22-.192.342-.403.363-.634.022-.23-.056-.448-.234-.654a1.44 1.44 0 0 0-.772-.464c-.003-.092.041-.177.132-.256a.394.394 0 0 1 .279-.1c.28.084.564.292.854.625.278.32.414.648.41.982-.008.362-.181.692-.522.987l-1.282 1.111zm-1.155-1.333a.486.486 0 0 1-.337-.185c-.098-.112-.138-.228-.123-.345l1.295-1.123c.128-.013.24.037.337.149.098.113.14.24.123.38L4.92 22.808zM7.334 25.12c-.115.027-.236-.01-.362-.108-.128-.1-.192-.207-.192-.322l1.8-2.31c.1-.026.217.015.352.12.132.103.2.206.2.31l-1.798 2.31zM10.52 26.445c.03.073.02.16-.032.263-.052.104-.12.167-.203.19l-2.307-1.161c-.028-.079-.015-.17.037-.274.053-.106.117-.166.193-.183l1.585.798c-.047-.14-.008-.335.118-.585l.277-.55a.947.947 0 0 0 .086-.681.804.804 0 0 0-.44-.524 1.301 1.301 0 0 0-.746-.122.396.396 0 0 1 .041-.282.414.414 0 0 1 .201-.197c.256-.022.56.056.913.234.362.183.597.44.705.772.112.344.067.716-.133 1.114l-.38.757c-.104.206-.113.33-.027.374l.111.056zM12.848 27.46c-.084.075-.204.093-.36.057-.16-.037-.266-.108-.318-.213l.268-1.155-.026-.007c-.149-.034-.289.009-.419.128-.13.12-.22.296-.274.526l-.09.381c-.087.072-.198.091-.335.06-.142-.033-.232-.1-.273-.2l.089-.383c.082-.353.242-.608.48-.766.24-.159.524-.2.853-.123l.08.019.079-.34c.044-.188.037-.35-.023-.483a.472.472 0 0 0-.346-.27.545.545 0 0 0-.479.106.394.394 0 0 1-.042-.3.347.347 0 0 1 .147-.225c.18-.075.4-.083.659-.022.681.158.93.632.746 1.423l-.416 1.788zM18.387 27.179c-.049.1-.156.163-.323.192-.172.028-.295.003-.37-.078l-.32-1.937a.612.612 0 0 0-.173-.359.365.365 0 0 0-.324-.091l-.519.085c-.074.013-.088.156-.042.431l.194 1.17c.113.678-.114 1.064-.678 1.157a.574.574 0 0 1-.357-.038.302.302 0 0 1-.152-.231.336.336 0 0 1 .067-.279.236.236 0 0 0 .215.074c.2-.034.273-.217.218-.55l-.163-.99c-.053-.316-.018-.53.103-.645l-.598.099c-.078-.042-.126-.124-.147-.247-.019-.116.002-.206.061-.269l1.78-.295c.69-.114 1.094.183 1.212.892l.316 1.909zM19.92 26.545c-.035.112-.127.199-.276.259-.15.06-.276.061-.375.003l-1.095-2.716c.028-.098.122-.18.281-.244.155-.063.278-.069.37-.018l1.094 2.716zM22.697 23.659c.235.336.32.65.256.94-.055.244-.205.453-.452.626-.18.125-.331.186-.453.182a.395.395 0 0 1-.193-.152c-.067-.095-.089-.18-.066-.255a.519.519 0 0 0 .299-.079.456.456 0 0 0 .2-.346c.019-.159-.03-.32-.144-.484l-.636-.908a.48.48 0 0 0-.268-.203.286.286 0 0 0-.245.04c-.141.099-.171.288-.091.567l.614 2.144c-.007.117-.087.228-.24.335-.159.111-.285.144-.377.098l-.48-1.863a.275.275 0 0 1-.172.074.282.282 0 0 1-.186-.036l-.892-.538c-.014-.092.054-.191.205-.297.148-.103.273-.14.377-.11l.733.425-.048-.18c-.132-.49-.012-.866.36-1.127.207-.144.415-.204.624-.18.25.028.47.176.658.446l.617.88zM24.415 20.962c.394.315.606.691.637 1.13.027.392-.086.746-.337 1.061-.205.255-.417.426-.64.511-.094.023-.19-.005-.287-.082-.1-.081-.145-.166-.134-.254a.852.852 0 0 0 .523-.302.987.987 0 0 0 .226-.735c-.03-.29-.177-.54-.444-.753-.267-.214-.546-.303-.834-.267a.983.983 0 0 0-.666.383.838.838 0 0 0-.19.568c-.09.02-.182-.005-.272-.078-.098-.077-.148-.163-.15-.259.034-.226.156-.47.362-.73.256-.319.577-.507.965-.565.433-.066.848.058 1.241.372M26.576 18.784c.072-.034.16-.026.264.021.107.049.173.114.2.196l-1.072 2.35c-.078.03-.17.022-.276-.026-.107-.049-.17-.111-.19-.186l.736-1.615c-.139.053-.335.021-.589-.094l-.56-.256a.947.947 0 0 0-.685-.06.8.8 0 0 0-.506.46 1.307 1.307 0 0 0-.093.75.393.393 0 0 1-.283-.03.412.412 0 0 1-.205-.194c-.032-.254.035-.56.198-.92.17-.37.418-.614.744-.735.341-.125.713-.095 1.119.09l.772.351c.21.096.334.1.374.012l.052-.114z"/>
    </g>
</svg>
