<?xml version="1.0" encoding="UTF-8"?>
<svg width="32px" height="32px" viewBox="0 0 32 32" version="1.1" xmlns="http://www.w3.org/2000/svg" xmlns:xlink="http://www.w3.org/1999/xlink">
    <!-- Generator: sketchtool 61.2 (101010) - https://sketch.com -->
    <title>22FF3D65-144D-4046-ACD7-F42FB0BAFB4D</title>
    <desc>Created with sketchtool.</desc>
    <g id="Symbols" stroke="none" stroke-width="1" fill="none" fill-rule="evenodd">
        <g id="ProductCard-/-health/-red-symbol-open" transform="translate(-178.000000, -52.000000)">
            <g id="Group-2" transform="translate(178.000000, 52.000000)">
                <g id="Sugar-symbol">
                    <path d="M31.8144762,15.9085714 C31.8144762,24.6933333 24.6918095,31.8140952 15.9078095,31.8140952 C7.12114286,31.8140952 -1.62409768e-14,24.6933333 -1.62409768e-14,15.9085714 C-1.62409768e-14,7.12114286 7.12114286,-5.41365894e-15 15.9078095,-5.41365894e-15 C24.6918095,-5.41365894e-15 31.8144762,7.12114286 31.8144762,15.9085714" id="Fill-1" fill="#FFFFFE"></path>
                    <path d="M15.9076952,0.83527619 C7.58274286,0.83527619 0.834933333,7.58308571 0.834933333,15.908419 C0.834933333,24.2318476 7.58274286,30.9788952 15.9076952,30.9788952 C24.2311238,30.9788952 30.9796952,24.2318476 30.9796952,15.908419 C30.9796952,7.58308571 24.2311238,0.83527619 15.9076952,0.83527619" id="Fill-3" fill="#DA322A"></path>
                    <path d="M15.9078476,7.19634286 C20.7128,7.19634286 24.6179429,11.1018667 24.6179429,15.9087238 C24.6179429,20.7125333 20.7128,24.6180571 15.9078476,24.6180571 C11.1028952,24.6180571 7.19660952,20.7125333 7.19660952,15.9087238 C7.19660952,11.1018667 11.1028952,7.19634286 15.9078476,7.19634286" id="Fill-5" fill="#FFFFFE"></path>
                    <path d="M13.2897524,6.15969524 C13.2566095,6.2968381 13.1366095,6.40731429 12.9297524,6.49188571 C12.7187048,6.57950476 12.5548952,6.5856 12.4398476,6.50902857 L11.6863238,4.66826667 C11.5712762,4.39131429 11.3880381,4.18674286 11.1335619,4.05645714 C10.8619429,3.91969524 10.5800381,3.91131429 10.2867048,4.03093333 C9.97965714,4.15512381 9.74194286,4.34940952 9.57432381,4.60845714 C9.45432381,4.5856 9.36594286,4.50445714 9.3095619,4.36540952 C9.25470476,4.23131429 9.25699048,4.1048381 9.31832381,3.98407619 C9.50308571,3.74712381 9.82689524,3.53112381 10.2889905,3.34255238 C10.7735619,3.14445714 11.2173714,3.12921905 11.6158476,3.29645714 C12.0181333,3.46369524 12.3240381,3.80388571 12.5335619,4.31740952 L13.2897524,6.15969524 Z" id="Fill-7" fill="#FFFFFE"></path>
                    <path d="M16.6435429,4.11020952 C16.6770667,4.72735238 16.4957333,5.23173333 16.0957333,5.62259048 C15.7345905,5.97078095 15.2938286,6.15897143 14.7658286,6.19097143 C14.3406857,6.21497143 13.9902095,6.16087619 13.7113524,6.02906667 C13.6073524,5.9616381 13.5521143,5.85192381 13.5418286,5.69992381 C13.5319238,5.54144762 13.5753524,5.42982857 13.6732571,5.36735238 C13.9090667,5.53459048 14.1585905,5.61078095 14.4225905,5.59554286 C14.7924952,5.57344762 15.0984,5.43973333 15.338019,5.1944 C15.5913524,4.9296381 15.7094476,4.58868571 15.6839238,4.1704 C15.6584,3.74944762 15.5033524,3.42182857 15.218781,3.18830476 C14.9551619,2.97268571 14.6374476,2.87592381 14.2652571,2.89687619 C13.9852571,2.9144 13.7456381,3.01268571 13.546019,3.19287619 C13.4458286,3.12735238 13.3924952,3.02335238 13.3852571,2.88087619 C13.3768762,2.72887619 13.4172571,2.61154286 13.5086857,2.53078095 C13.7585905,2.37611429 14.1006857,2.28506667 14.5368762,2.25954286 C15.0664,2.22792381 15.5311619,2.36659048 15.9258286,2.67211429 C16.3688762,3.01306667 16.6073524,3.49306667 16.6435429,4.11020952" id="Fill-9" fill="#FFFFFE"></path>
                    <path d="M17.8182095,6.15542857 C17.7062095,6.248 17.5431619,6.2792381 17.3366857,6.24609524 C17.1279238,6.21104762 16.9865905,6.13028571 16.9149714,6.00495238 L17.4989714,2.45447619 C17.5976381,2.36952381 17.758019,2.3447619 17.9804952,2.38209524 C18.1945905,2.41752381 18.3366857,2.49142857 18.406019,2.60419048 L17.8182095,6.15542857 Z" id="Fill-11" fill="#FFFFFE"></path>
                    <path d="M20.9614476,5.61893333 C21.1195429,5.22655238 21.1785905,4.88064762 21.1370667,4.58198095 C21.0898286,4.27417143 20.942781,4.05588571 20.6890667,3.92788571 C20.4422095,3.80217143 20.2010667,3.81740952 19.9694476,3.97626667 C19.7359238,4.1328381 19.5404952,4.4048381 19.3835429,4.7903619 C19.2258286,5.17817143 19.1728762,5.52598095 19.222781,5.83607619 C19.2726857,6.14502857 19.414019,6.3583619 19.6517333,6.4783619 C19.8955429,6.60369524 20.1363048,6.58731429 20.3709714,6.43379048 C20.6052571,6.27988571 20.8025905,6.00750476 20.9614476,5.61893333 M21.7366857,5.9968381 C21.4924952,6.59531429 21.1484952,6.98007619 20.702781,7.1496 C20.2974476,7.30274286 19.8726857,7.26540952 19.4231619,7.0376 C18.990019,6.81740952 18.6902095,6.4848381 18.526781,6.03721905 C18.342781,5.54121905 18.3705905,4.9976 18.6086857,4.40788571 C18.8471619,3.82388571 19.1964952,3.44407619 19.6509714,3.27150476 C20.0604952,3.11607619 20.4825905,3.14807619 20.9176381,3.36940952 C21.3648762,3.59607619 21.670019,3.93017143 21.8345905,4.36902857 C22.0124952,4.85626667 21.9808762,5.39912381 21.7366857,5.9968381" id="Fill-13" fill="#FFFFFE"></path>
                    <path d="M29.4156952,10.3137143 C29.273981,9.98380952 28.8553143,9.76933333 28.3482667,9.76933333 C28.0896,9.76933333 27.8156952,9.82380952 27.5334095,9.92971429 L27.4953143,9.94533333 L27.4598857,9.96933333 C27.3913143,10.0158095 20.5936,14.6630476 19.0362667,15.5133333 C18.9596952,15.5537143 18.8937905,15.5735238 18.8324571,15.5735238 C18.8061714,15.5735238 18.7829333,15.572381 18.7543619,15.5628571 C18.7383619,15.5544762 18.7116952,15.540381 18.6793143,15.5228571 C18.1924571,15.2569524 17.7216,15.0409524 17.2724571,14.8699048 C16.5547429,13.676381 15.2922667,12.8055238 14.169981,12.8055238 C12.7330286,12.8055238 11.1303619,14.1773333 10.6736,15.6897143 C10.3989333,15.8573333 10.1475048,16.044381 9.93874286,16.2474286 C9.52350476,16.6466667 9.05074286,17.2790476 9.70979048,18.140381 L9.7288381,18.163619 L9.74902857,18.1822857 C11.2073143,19.5510476 13.4656,19.6977143 14.3673143,19.6977143 C14.7657905,19.6977143 15.1482667,19.6714286 15.417981,19.6230476 C17.2183619,19.300381 18.3021714,18.5872381 18.7257905,17.4455238 C18.9505524,16.8337143 19.5970286,16.5339048 20.3471238,16.1864762 C20.6145524,16.060381 20.8934095,15.932381 21.1715048,15.7807619 C21.9162667,15.3697143 24.6808381,14.0565714 26.5109333,13.1860952 C27.2016,12.8577143 27.7836952,12.5811429 28.1254095,12.4169524 C29.761981,11.6264762 29.5734095,10.6847619 29.4156952,10.3137143" id="Fill-15" fill="#FFFFFE"></path>
                    <path d="M27.9740952,12.1035048 C26.6975238,12.7214095 22.0304762,14.909219 21.0026667,15.4745524 C19.9306667,16.0635048 18.7653333,16.3320762 18.400381,17.3244571 C17.96,18.5103619 16.7455238,19.0326476 15.3546667,19.2791238 C15.1413333,19.3198857 14.7946667,19.3507429 14.3672381,19.3507429 C13.1260952,19.3507429 11.2148571,19.0802667 9.98590476,17.9290286 C9.5847619,17.4029333 9.66438095,16.997219 10.1801905,16.4966476 C10.192381,16.4829333 10.2106667,16.4711238 10.224,16.4589333 C10.2617143,16.7636952 10.3786667,17.0486476 10.5786667,17.3008381 C11.1786667,18.0600762 12.5230476,18.5107429 14.1699048,18.5107429 C15.4750476,18.5107429 17.119619,18.1816 17.8198095,17.2604571 C18.1386667,16.8337905 18.2270476,16.3217905 18.072381,15.781219 C18.0518095,15.7069333 18.0274286,15.637219 18.0022857,15.5629333 C18.3607619,15.7389333 18.5977143,15.8795048 18.6308571,15.8909333 C18.696381,15.9130286 18.7638095,15.9233143 18.832381,15.9233143 C18.9531429,15.9233143 19.0758095,15.8894095 19.2026667,15.8177905 C20.7939048,14.949219 27.656381,10.2566476 27.656381,10.2566476 C27.9184762,10.157981 28.1504762,10.1164571 28.3481905,10.1164571 C28.7645714,10.1164571 29.0285714,10.2916952 29.096381,10.4528381 C29.3485714,11.0456 28.9337143,11.6387429 27.9740952,12.1035048 M10.9744762,15.9656 C11.3100952,14.5297905 12.8651429,13.1720762 14.1699048,13.1720762 C15.4464762,13.1720762 16.9428571,14.485219 17.3706667,15.9808381 C17.4617143,16.3023619 17.4171429,16.5766476 17.2358095,16.8189333 C16.792381,17.4029333 15.5912381,17.7808381 14.1699048,17.7808381 C12.7878095,17.7808381 11.6026667,17.413981 11.152381,16.8448381 C10.952,16.5926476 10.8937143,16.3073143 10.9744762,15.9656 M29.7367619,10.1800762 C29.5390476,9.71950476 28.9939048,9.44674286 28.3481905,9.4223619 C27.9634286,9.4063619 27.5398095,9.51150476 27.264,9.68140952 C27.2198095,9.7096 20.4125714,14.3667429 18.8712381,15.2071238 C18.8609524,15.2113143 18.8529524,15.2151238 18.848381,15.2196952 C18.8472381,15.2185524 18.8464762,15.2181714 18.8457143,15.2181714 C18.3927619,14.9697905 17.9569524,14.7678857 17.5344762,14.5983619 C16.7455238,13.3507429 15.4026667,12.4387429 14.1699048,12.4387429 C12.6053333,12.4387429 10.8979048,13.829981 10.3535238,15.4840762 C10.1142857,15.6383619 9.91580952,15.8387429 9.6967619,15.997981 C8.18742857,17.0836952 9.51161905,18.4368381 9.51161905,18.4368381 C11.0460952,19.9347429 13.424381,20.045219 14.3672381,20.045219 C14.7939048,20.045219 15.1878095,20.0177905 15.4777143,19.9663619 C17.4133333,19.6196952 18.5813333,18.8360762 19.0514286,17.5663619 C19.2201905,17.1118857 19.7089524,16.8665524 20.4937143,16.501981 C20.767619,16.373219 21.0518095,16.2417905 21.3379048,16.085219 C22.0739048,15.6814095 24.8335238,14.3675048 26.6601905,13.501981 C27.352,13.173219 27.9348571,12.8958857 28.2758095,12.7305524 C30.2361905,11.7816 29.8895238,10.5393143 29.7367619,10.1800762" id="Fill-17" fill="#DA322A"></path>
                    <path d="M4.11154286,22.7634667 C3.98773333,22.7238476 3.89211429,22.6305143 3.82430476,22.4827048 C3.75649524,22.3360381 3.74659048,22.2034667 3.79687619,22.0842286 L5.37401905,21.3539429 C5.65630476,21.2228952 5.84297143,21.0415619 5.93401905,20.8122286 C6.02392381,20.5817524 6.00868571,20.3356571 5.8871619,20.0728 C5.74773333,19.7714667 5.52944762,19.5368 5.23268571,19.3676571 C5.25668571,19.273181 5.32754286,19.1992762 5.44335238,19.145181 C5.54735238,19.097181 5.65135238,19.0903238 5.7584,19.1246095 C6.02125714,19.2937524 6.25097143,19.5916571 6.44906667,20.0179429 C6.63992381,20.4286095 6.68259048,20.8038476 6.57859048,21.1455619 C6.46468571,21.5150857 6.1896381,21.8008 5.75306667,22.0027048 L4.11154286,22.7634667 Z M3.32068571,21.0560381 C3.19459048,21.0095619 3.09706667,20.9135619 3.0296381,20.7672762 C2.96297143,20.6225143 2.95497143,20.4929905 3.00601905,20.377181 L4.66506667,19.6088 C4.7991619,19.6339429 4.89973333,19.7181333 4.9656381,19.8606095 C5.03306667,20.0053714 5.0376381,20.1474667 4.97935238,20.2876571 L3.32068571,21.0560381 Z" id="Fill-19" fill="#FFFFFE"></path>
                    <path d="M6.48171429,25.7486095 C6.35295238,25.7448 6.2352381,25.681181 6.12819048,25.5581333 C6.02190476,25.4366095 5.97771429,25.3116571 5.99142857,25.1836571 L7.30495238,24.0449905 C7.54,23.8400381 7.66990476,23.6148952 7.69238095,23.368419 C7.7152381,23.1227048 7.63219048,22.8903238 7.44247619,22.6712762 C7.22495238,22.4206095 6.95066667,22.2552762 6.61847619,22.1756571 C6.61580952,22.0777524 6.66304762,21.9874667 6.75942857,21.9028952 C6.84590476,21.8282286 6.94457143,21.7928 7.05657143,21.7958476 C7.356,21.8857524 7.6592381,22.1078476 7.96819048,22.4628952 C8.26457143,22.8046095 8.41009524,23.1539429 8.40438095,23.5108952 C8.39790476,23.8968 8.21238095,24.2480381 7.84895238,24.5630857 L6.48171429,25.7486095 Z M5.24895238,24.3272762 C5.11447619,24.3177524 4.99561905,24.2522286 4.88933333,24.1303238 C4.78495238,24.0103238 4.74190476,23.8868952 4.75904762,23.7619429 L6.14,22.5638476 C6.276,22.5508952 6.3952381,22.6042286 6.4992381,22.7230857 C6.60361905,22.8434667 6.64780952,22.9787048 6.62990476,23.1295619 L5.24895238,24.3272762 Z" id="Fill-21" fill="#FFFFFE"></path>
                    <path d="M7.8232381,26.7954667 C7.70057143,26.8232762 7.57142857,26.7848 7.43733333,26.6796571 C7.30057143,26.5733714 7.232,26.4590857 7.232,26.3360381 L9.15085714,23.8712762 C9.25790476,23.8442286 9.3832381,23.8876571 9.52761905,23.9996571 C9.66819048,24.1093714 9.73980952,24.2198476 9.74171429,24.3310857 L7.8232381,26.7954667 Z" id="Fill-23" fill="#FFFFFE"></path>
                    <path d="M11.2209143,28.2075048 C11.2532952,28.2863619 11.2418667,28.3796952 11.1866286,28.4886476 C11.1317714,28.5995048 11.0593905,28.6669333 10.9713905,28.6920762 L8.50967619,27.4524571 C8.4799619,27.3686476 8.49405714,27.2711238 8.54929524,27.1602667 C8.6064381,27.0478857 8.67462857,26.9831238 8.75539048,26.9656 L10.4456762,27.8170286 C10.3957714,27.6665524 10.4369143,27.4589333 10.5713905,27.1930286 L10.8666286,26.6063619 C10.9904381,26.3610286 11.0209143,26.1187429 10.958819,25.8791238 C10.8921524,25.6311238 10.7359619,25.4448381 10.4898667,25.3206476 C10.2521524,25.2010286 9.98700952,25.1576 9.6944381,25.1903619 C9.66967619,25.0970286 9.68453333,24.997219 9.73824762,24.8901714 C9.78700952,24.7922667 9.85900952,24.7217905 9.9519619,24.6791238 C10.2251048,24.6562667 10.5481524,24.7396952 10.9252952,24.9294095 C11.3119619,25.1240762 11.5626286,25.3983619 11.6776762,25.7526476 C11.7969143,26.1198857 11.7492952,26.5164571 11.5367238,26.9404571 L11.1294857,27.7484571 C11.0193905,27.9682667 11.0094857,28.101219 11.1016762,28.1469333 L11.2209143,28.2075048 Z" id="Fill-25" fill="#FFFFFE"></path>
                    <path d="M13.7049143,29.2913905 C13.6146286,29.3702476 13.4866286,29.3904381 13.3201524,29.3512 C13.1502476,29.3119619 13.0367238,29.2357714 12.9814857,29.1237714 L13.267581,27.8917714 L13.2393905,27.8852952 C13.0805333,27.8487238 12.931581,27.8940571 12.7929143,28.0216762 C12.6546286,28.1496762 12.5571048,28.3367238 12.4999619,28.5820571 L12.4051048,28.9892952 C12.3113905,29.0651048 12.1921524,29.0860571 12.0466286,29.0525333 C11.8950095,29.0178667 11.7990095,28.9458667 11.7559619,28.838819 L11.8504381,28.430819 C11.9380571,28.054819 12.1091048,27.7824381 12.3632,27.6136762 C12.6176762,27.4445333 12.9212952,27.4007238 13.2725333,27.4830095 L13.3574857,27.502819 L13.4420571,27.1405333 C13.4892952,26.9393905 13.4812952,26.7679619 13.4180571,26.6254857 C13.3498667,26.4742476 13.2272,26.3778667 13.0492952,26.3363429 C12.8614857,26.2929143 12.6912,26.3310095 12.5376762,26.4502476 C12.4809143,26.3542476 12.4660571,26.247581 12.4931048,26.1306286 C12.5178667,26.0220571 12.5704381,25.9420571 12.6500571,25.8906286 C12.8424381,25.8102476 13.0759619,25.8018667 13.3521524,25.8666286 C14.0793905,26.0353905 14.3441524,26.5412952 14.147581,27.3843429 L13.7049143,29.2913905 Z" id="Fill-27" fill="#FFFFFE"></path>
                    <path d="M19.6128381,28.990781 C19.5610286,29.0974476 19.445981,29.1652571 19.2684571,29.1953524 C19.0848381,29.2254476 18.9534095,29.1984 18.8737905,29.1126857 L18.5316952,27.046781 C18.5035048,26.8791619 18.4425524,26.7519238 18.3476952,26.6639238 C18.2520762,26.5763048 18.1370286,26.5435429 18.0029333,26.566019 L17.4490286,26.6574476 C17.3701714,26.670781 17.3549333,26.8235429 17.4040762,27.1172571 L17.6101714,28.3641143 C17.7305524,29.0879238 17.4894095,29.4993524 16.8878857,29.5991619 C16.7370286,29.6243048 16.6097905,29.6105905 16.5061714,29.558781 C16.4177905,29.5104 16.3636952,29.4281143 16.3442667,29.3119238 C16.3248381,29.1957333 16.3496,29.0966857 16.4162667,29.0144 C16.4825524,29.0810667 16.5591238,29.1069714 16.6448381,29.0928762 C16.8596952,29.0570667 16.9370286,28.862019 16.8783619,28.5073524 L16.7038857,27.4502095 C16.6475048,27.1138286 16.6844571,26.8844952 16.813981,26.7625905 L16.1758857,26.8681143 C16.093219,26.8231619 16.0414095,26.7355429 16.0196952,26.6052571 C15.9995048,26.4806857 16.0216,26.3850667 16.0844571,26.318019 L17.9838857,26.0033524 C18.7195048,25.8814476 19.1503619,26.198781 19.2753143,26.9545905 L19.6128381,28.990781 Z" id="Fill-29" fill="#FFFFFE"></path>
                    <path d="M21.2475429,28.3146286 C21.2105905,28.4342476 21.1123048,28.5264381 20.9538286,28.5904381 C20.7930667,28.654819 20.6601143,28.6559619 20.5538286,28.5946286 L19.3858286,25.6974857 C19.4155429,25.5923429 19.5161143,25.5047238 19.6856381,25.4369143 C19.8505905,25.3698667 19.9824,25.3633905 20.0795429,25.4178667 L21.2475429,28.3146286 Z" id="Fill-31" fill="#FFFFFE"></path>
                    <path d="M24.2101333,25.2357714 C24.461181,25.5946286 24.5518476,25.9291048 24.4832762,26.2399619 C24.4249905,26.4997714 24.2646095,26.7218667 24.0009905,26.9066286 C23.8093714,27.0399619 23.6482286,27.1051048 23.5175619,27.1005333 C23.4352762,27.0704381 23.3655619,27.0163429 23.3114667,26.9382476 C23.2406095,26.8372952 23.2173714,26.7462476 23.2421333,26.6662476 C23.3762286,26.6651048 23.4821333,26.6376762 23.5606095,26.582819 C23.6874667,26.4940571 23.7598476,26.3706286 23.7743238,26.2136762 C23.7937524,26.0441524 23.7419429,25.8719619 23.6200381,25.6974857 L22.941181,24.7283429 C22.8608,24.6132952 22.765181,24.5412952 22.6550857,24.5123429 C22.5575619,24.487581 22.4707048,24.5020571 22.3941333,24.5553905 C22.2440381,24.6597714 22.2120381,24.8616762 22.2977524,25.159581 L22.9529905,27.446819 C22.9449905,27.5710095 22.8600381,27.6898667 22.6977524,27.8033905 C22.5274667,27.9226286 22.3926095,27.9572952 22.2943238,27.9077714 L21.7823238,25.9211048 C21.7373714,25.9656762 21.676419,25.9919619 21.5987048,25.9999619 C21.5217524,26.0091048 21.4562286,25.9957714 21.4006095,25.9614857 L20.4486095,25.3873905 C20.4345143,25.2891048 20.5072762,25.183581 20.6680381,25.0712 C20.8253714,24.9607238 20.9587048,24.9214857 21.069181,24.9531048 L21.852419,25.4072 L21.8002286,25.2159619 C21.6596571,24.6925333 21.7872762,24.2913905 22.1849905,24.0129143 C22.4048,23.8593905 22.6268952,23.7953905 22.8501333,23.8205333 C23.1175619,23.8502476 23.3518476,24.0087238 23.5526095,24.2967238 L24.2101333,25.2357714 Z" id="Fill-33" fill="#FFFFFE"></path>
                    <path d="M26.0427429,22.3598476 C26.4629333,22.6950857 26.6888381,23.0966095 26.7223619,23.5655619 C26.7509333,23.9827048 26.6301714,24.3606095 26.361981,24.6969905 C26.1444571,24.9689905 25.9177905,25.1507048 25.6804571,25.2421333 C25.5798857,25.2661333 25.4781714,25.236419 25.3745524,25.1541333 C25.2667429,25.0676571 25.2187429,24.9773714 25.2309333,24.8828952 C25.4686476,24.8368 25.6541714,24.7293714 25.7894095,24.5606095 C25.977981,24.3240381 26.0587429,24.0623238 26.0305524,23.7766095 C25.9989333,23.468419 25.841219,23.2009905 25.5570286,22.9743238 C25.2713143,22.7457524 24.9741714,22.6508952 24.6671238,22.6886095 C24.3821714,22.724419 24.1444571,22.860419 23.9558857,23.0977524 C23.8126476,23.276419 23.7456,23.4783238 23.753219,23.7038476 C23.657219,23.7255619 23.5593143,23.6981333 23.4633143,23.6208 C23.3596952,23.5381333 23.305981,23.4463238 23.3029333,23.3442286 C23.3391238,23.1030857 23.4694095,22.8432762 23.689981,22.565181 C23.961981,22.2253714 24.3048381,22.0246095 24.7185524,21.9625143 C25.1814095,21.8920381 25.6233143,22.0246095 26.0427429,22.3598476" id="Fill-35" fill="#FFFFFE"></path>
                    <path d="M28.3479619,20.0361905 C28.4249143,20.000381 28.5190095,20.008381 28.6302476,20.0586667 C28.7433905,20.1108571 28.8134857,20.1798095 28.8412952,20.2674286 L27.6992,22.7744762 C27.6157714,22.8072381 27.5174857,22.7977143 27.4054857,22.7462857 C27.2904381,22.6944762 27.2230095,22.6278095 27.202819,22.5481905 L27.987581,20.8255238 C27.8393905,20.8819048 27.6298667,20.848381 27.3593905,20.7249524 L26.7620571,20.4525714 C26.5117714,20.3386667 26.2683429,20.3169524 26.0310095,20.3885714 C25.7856762,20.464 25.6058667,20.6274286 25.4912,20.8780952 C25.3807238,21.120381 25.3483429,21.3870476 25.3921524,21.6784762 C25.2999619,21.7066667 25.1993905,21.696 25.0904381,21.6464762 C24.9906286,21.6007619 24.9174857,21.5325714 24.8713905,21.440381 C24.8382476,21.1695238 24.9087238,20.8419048 25.083581,20.4586667 C25.2633905,20.0647619 25.5281524,19.8034286 25.8771048,19.6746667 C26.2401524,19.5409524 26.6371048,19.5729524 27.0698667,19.7699048 L27.8927238,20.1451429 C28.1163429,20.2472381 28.2492952,20.2514286 28.2927238,20.1580952 L28.3479619,20.0361905 Z" id="Fill-37" fill="#FFFFFE"></path>
                </g>
            </g>
        </g>
    </g>
</svg>